<svg xmlns="http://www.w3.org/2000/svg" viewBox="0 0 64 64" width="64" height="64">
  <rect x="2" y="10" width="18" height="16" fill="#1A1428"/>
  <rect x="44" y="10" width="18" height="16" fill="#1A1428"/>
  <rect x="4" y="12" width="14" height="12" fill="#96846C"/>
  <rect x="5" y="13" width="12" height="10" fill="#C8B090"/>
  <rect x="5" y="13" width="5" height="8" fill="#D8C7B1"/>
  <rect x="46" y="12" width="14" height="12" fill="#96846C"/>
  <rect x="47" y="13" width="12" height="10" fill="#C8B090"/>
  <rect x="52" y="13" width="5" height="8" fill="#D8C7B1"/>
  <rect x="4" y="12" width="14" height="3" fill="#8B6040"/>
  <rect x="46" y="12" width="14" height="3" fill="#8B6040"/>
  <rect x="14" y="20" width="36" height="36" fill="#1A1428"/>
  <rect x="16" y="22" width="32" height="32" fill="#96846C"/>
  <rect x="18" y="23" width="28" height="30" fill="#C8B090"/>
  <rect x="20" y="24" width="12" height="26" fill="#D8C7B1"/>
  <rect x="31" y="23" width="2" height="30" fill="#A08C73"/>
  <rect x="16" y="50" width="32" height="4" fill="#8B6040"/>
  <rect x="18" y="51" width="28" height="2" fill="#AD8F79"/>
  <rect x="14" y="54" width="36" height="8" fill="#1A1428"/>
  <rect x="16" y="55" width="32" height="6" fill="#7D5639"/>
  <rect x="29" y="55" width="6" height="6" fill="#1A1428"/>
  <rect x="30" y="56" width="4" height="4" fill="#8B6040"/>
</svg>