<svg xmlns="http://www.w3.org/2000/svg" viewBox="0 0 64 64" width="64" height="64">
  <rect x="2" y="10" width="18" height="16" fill="#1A1428"/>
  <rect x="44" y="10" width="18" height="16" fill="#1A1428"/>
  <rect x="4" y="12" width="14" height="12" fill="#6C6C72"/>
  <rect x="5" y="13" width="12" height="10" fill="#909098"/>
  <rect x="5" y="13" width="5" height="8" fill="#B1B1B6"/>
  <rect x="46" y="12" width="14" height="12" fill="#6C6C72"/>
  <rect x="47" y="13" width="12" height="10" fill="#909098"/>
  <rect x="52" y="13" width="5" height="8" fill="#B1B1B6"/>
  <rect x="4" y="12" width="14" height="3" fill="#C8962A"/>
  <rect x="46" y="12" width="14" height="3" fill="#C8962A"/>
  <rect x="14" y="20" width="36" height="36" fill="#1A1428"/>
  <rect x="16" y="22" width="32" height="32" fill="#6C6C72"/>
  <rect x="18" y="23" width="28" height="30" fill="#909098"/>
  <rect x="20" y="24" width="12" height="26" fill="#B1B1B6"/>
  <rect x="31" y="23" width="2" height="30" fill="#737379"/>
  <rect x="16" y="50" width="32" height="4" fill="#C8962A"/>
  <rect x="18" y="51" width="28" height="2" fill="#D8B569"/>
  <circle cx="32" cy="35" r="5" fill="#1A1428"/>
  <circle cx="32" cy="35" r="4" fill="#4299E1"/>
  <circle cx="31" cy="33" r="1.5" fill="#A0CCF0"/>
  <rect x="14" y="54" width="36" height="8" fill="#1A1428"/>
  <rect x="16" y="55" width="32" height="6" fill="#B48725"/>
  <rect x="29" y="55" width="6" height="6" fill="#1A1428"/>
  <rect x="30" y="56" width="4" height="4" fill="#C8962A"/>
</svg>