<svg xmlns="http://www.w3.org/2000/svg" viewBox="0 0 64 64" width="64" height="64">
  <circle cx="32" cy="32" r="30" fill="#44337A18"/>
  <circle cx="32" cy="32" r="24" fill="#44337A28"/>
  <circle cx="32" cy="32" r="18" fill="#695B9438"/>
  <polygon points="32,2 29.0,7.0 32,12 35.0,7.0" fill="#44337ABB"/>
  <polygon points="32,2 29.0,7.0 32,12 35.0,7.0" fill="#B794F488"/>
  <polygon points="32,52 29.0,57.0 32,62 35.0,57.0" fill="#44337ABB"/>
  <polygon points="32,52 29.0,57.0 32,62 35.0,57.0" fill="#B794F488"/>
  <polygon points="2,32 7.0,35.0 12,32 7.0,29.0" fill="#44337ABB"/>
  <polygon points="2,32 7.0,35.0 12,32 7.0,29.0" fill="#B794F488"/>
  <polygon points="52,32 57.0,35.0 62,32 57.0,29.0" fill="#44337ABB"/>
  <polygon points="52,32 57.0,35.0 62,32 57.0,29.0" fill="#B794F488"/>
  <polygon points="10,10 11.878679656440358,16.121320343559642 18,18 16.121320343559642,11.878679656440358" fill="#44337ABB"/>
  <polygon points="10,10 11.878679656440358,16.121320343559642 18,18 16.121320343559642,11.878679656440358" fill="#B794F488"/>
  <polygon points="54,10 47.878679656440355,11.878679656440358 46,18 52.121320343559645,16.121320343559642" fill="#44337ABB"/>
  <polygon points="54,10 47.878679656440355,11.878679656440358 46,18 52.121320343559645,16.121320343559642" fill="#B794F488"/>
  <polygon points="10,54 16.121320343559642,52.121320343559645 18,46 11.878679656440358,47.878679656440355" fill="#44337ABB"/>
  <polygon points="10,54 16.121320343559642,52.121320343559645 18,46 11.878679656440358,47.878679656440355" fill="#B794F488"/>
  <polygon points="54,54 52.121320343559645,47.878679656440355 46,46 47.878679656440355,52.121320343559645" fill="#44337ABB"/>
  <polygon points="54,54 52.121320343559645,47.878679656440355 46,46 47.878679656440355,52.121320343559645" fill="#B794F488"/>
  <circle cx="32" cy="32" r="12" fill="#1A1428"/>
  <circle cx="32" cy="32" r="10" fill="#3D2D6D"/>
  <circle cx="32" cy="32" r="8" fill="#44337A"/>
  <circle cx="32" cy="32" r="5" fill="#B794F4"/>
  <circle cx="30" cy="30" r="3" fill="#DBC9F9"/>
  <polygon points="32,16 34,30 48,32 34,34 32,48 30,34 16,32 30,30" fill="#44337ACC"/>
</svg>