<svg xmlns="http://www.w3.org/2000/svg" viewBox="0 0 64 64" width="64" height="64">
  <circle cx="32" cy="32" r="30" fill="#E2E8F018"/>
  <circle cx="32" cy="32" r="24" fill="#E2E8F028"/>
  <circle cx="32" cy="32" r="18" fill="#E7ECF338"/>
  <polygon points="32,2 29.0,7.0 32,12 35.0,7.0" fill="#E2E8F0BB"/>
  <polygon points="32,2 29.0,7.0 32,12 35.0,7.0" fill="#FFFFFF88"/>
  <polygon points="32,52 29.0,57.0 32,62 35.0,57.0" fill="#E2E8F0BB"/>
  <polygon points="32,52 29.0,57.0 32,62 35.0,57.0" fill="#FFFFFF88"/>
  <polygon points="2,32 7.0,35.0 12,32 7.0,29.0" fill="#E2E8F0BB"/>
  <polygon points="2,32 7.0,35.0 12,32 7.0,29.0" fill="#FFFFFF88"/>
  <polygon points="52,32 57.0,35.0 62,32 57.0,29.0" fill="#E2E8F0BB"/>
  <polygon points="52,32 57.0,35.0 62,32 57.0,29.0" fill="#FFFFFF88"/>
  <polygon points="10,10 11.878679656440358,16.121320343559642 18,18 16.121320343559642,11.878679656440358" fill="#E2E8F0BB"/>
  <polygon points="10,10 11.878679656440358,16.121320343559642 18,18 16.121320343559642,11.878679656440358" fill="#FFFFFF88"/>
  <polygon points="54,10 47.878679656440355,11.878679656440358 46,18 52.121320343559645,16.121320343559642" fill="#E2E8F0BB"/>
  <polygon points="54,10 47.878679656440355,11.878679656440358 46,18 52.121320343559645,16.121320343559642" fill="#FFFFFF88"/>
  <polygon points="10,54 16.121320343559642,52.121320343559645 18,46 11.878679656440358,47.878679656440355" fill="#E2E8F0BB"/>
  <polygon points="10,54 16.121320343559642,52.121320343559645 18,46 11.878679656440358,47.878679656440355" fill="#FFFFFF88"/>
  <polygon points="54,54 52.121320343559645,47.878679656440355 46,46 47.878679656440355,52.121320343559645" fill="#E2E8F0BB"/>
  <polygon points="54,54 52.121320343559645,47.878679656440355 46,46 47.878679656440355,52.121320343559645" fill="#FFFFFF88"/>
  <circle cx="32" cy="32" r="12" fill="#1A1428"/>
  <circle cx="32" cy="32" r="10" fill="#CBD0D8"/>
  <circle cx="32" cy="32" r="8" fill="#E2E8F0"/>
  <circle cx="32" cy="32" r="5" fill="#FFFFFF"/>
  <circle cx="30" cy="30" r="3" fill="#FFFFFF"/>
  <polygon points="32,16 34,30 48,32 34,34 32,48 30,34 16,32 30,30" fill="#E2E8F0CC"/>
</svg>