<svg xmlns="http://www.w3.org/2000/svg" viewBox="0 0 64 64" width="64" height="64">
  <rect x="4" y="10" width="22" height="34" rx="4" fill="#1A1428"/>
  <rect x="6" y="12" width="18" height="30" rx="3" fill="#371E0C"/>
  <rect x="7" y="13" width="16" height="28" rx="3" fill="#4A2810"/>
  <rect x="8" y="14" width="6" height="22" fill="#806857"/>
  <rect x="4" y="40" width="28" height="16" rx="4" fill="#1A1428"/>
  <rect x="6" y="42" width="24" height="12" rx="3" fill="#4A2810"/>
  <rect x="7" y="43" width="12" height="8" fill="#806857"/>
  <rect x="4" y="52" width="30" height="8" rx="3" fill="#1A1428"/>
  <rect x="6" y="54" width="26" height="5" fill="#2A1808"/>
  <rect x="7" y="54" width="12" height="2" fill="#5F5145"/>
  <rect x="8" y="26" width="12" height="8" rx="2" fill="#1A1428"/>
  <rect x="9" y="27" width="10" height="6" rx="1" fill="#C8962A"/>
  <circle cx="14" cy="30" r="2" fill="#DEC07F"/>
  <rect x="4" y="40" width="22" height="3" fill="#3B200C"/>
  <rect x="34" y="10" width="22" height="34" rx="4" fill="#1A1428"/>
  <rect x="36" y="12" width="18" height="30" rx="3" fill="#371E0C"/>
  <rect x="37" y="13" width="16" height="28" rx="3" fill="#4A2810"/>
  <rect x="44" y="14" width="6" height="22" fill="#806857"/>
  <rect x="32" y="40" width="28" height="16" rx="4" fill="#1A1428"/>
  <rect x="34" y="42" width="24" height="12" rx="3" fill="#4A2810"/>
  <rect x="44" y="43" width="10" height="8" fill="#806857"/>
  <rect x="32" y="52" width="30" height="8" rx="3" fill="#1A1428"/>
  <rect x="34" y="54" width="26" height="5" fill="#2A1808"/>
  <rect x="44" y="54" width="10" height="2" fill="#5F5145"/>
  <rect x="48" y="26" width="12" height="8" rx="2" fill="#1A1428"/>
  <rect x="49" y="27" width="10" height="6" rx="1" fill="#C8962A"/>
  <circle cx="54" cy="30" r="2" fill="#DEC07F"/>
  <rect x="34" y="40" width="22" height="3" fill="#3B200C"/>
</svg>