<svg xmlns="http://www.w3.org/2000/svg" viewBox="0 0 64 64" width="64" height="64">
  <rect x="8" y="14" width="48" height="38" rx="14" fill="#1A1428"/>
  <rect x="10" y="16" width="44" height="34" rx="12" fill="#3F2D73"/>
  <rect x="12" y="18" width="40" height="30" rx="10" fill="#553C9A"/>
  <rect x="14" y="20" width="16" height="22" fill="#8876B8"/>
  <rect x="6" y="48" width="52" height="12" rx="3" fill="#1A1428"/>
  <rect x="8" y="49" width="48" height="10" rx="2" fill="#3B2A6B"/>
  <rect x="10" y="49" width="3" height="10" fill="#2E2154"/>
  <rect x="18" y="49" width="3" height="10" fill="#2E2154"/>
  <rect x="26" y="49" width="3" height="10" fill="#2E2154"/>
  <rect x="34" y="49" width="3" height="10" fill="#2E2154"/>
  <rect x="42" y="49" width="3" height="10" fill="#2E2154"/>
  <rect x="50" y="49" width="3" height="10" fill="#2E2154"/>
  <rect x="10" y="30" width="44" height="8" rx="3" fill="#DDAC23"/>
  <rect x="12" y="31" width="40" height="6" rx="2" fill="#F6C027"/>
  <circle cx="32" cy="12" r="11" fill="#1A1428"/>
  <circle cx="32" cy="12" r="9" fill="#A485DB"/>
  <circle cx="32" cy="12" r="8" fill="#B794F4"/>
  <circle cx="30" cy="10" r="3" fill="#D3BEF8"/>
</svg>