<svg xmlns="http://www.w3.org/2000/svg" viewBox="0 0 64 64" width="64" height="64">
  <rect x="8" y="14" width="48" height="38" rx="14" fill="#1A1428"/>
  <rect x="10" y="16" width="44" height="34" rx="12" fill="#AB2E2E"/>
  <rect x="12" y="18" width="40" height="30" rx="10" fill="#E53E3E"/>
  <rect x="14" y="20" width="16" height="22" fill="#EC7777"/>
  <rect x="6" y="48" width="52" height="12" rx="3" fill="#1A1428"/>
  <rect x="8" y="49" width="48" height="10" rx="2" fill="#A02B2B"/>
  <rect x="10" y="49" width="3" height="10" fill="#7D2222"/>
  <rect x="18" y="49" width="3" height="10" fill="#7D2222"/>
  <rect x="26" y="49" width="3" height="10" fill="#7D2222"/>
  <rect x="34" y="49" width="3" height="10" fill="#7D2222"/>
  <rect x="42" y="49" width="3" height="10" fill="#7D2222"/>
  <rect x="50" y="49" width="3" height="10" fill="#7D2222"/>
  <circle cx="32" cy="12" r="11" fill="#1A1428"/>
  <circle cx="32" cy="12" r="9" fill="#E5E5E5"/>
  <circle cx="32" cy="12" r="8" fill="#FFFFFF"/>
  <circle cx="30" cy="10" r="3" fill="#FFFFFF"/>
</svg>