<svg xmlns="http://www.w3.org/2000/svg" viewBox="0 0 64 64" width="64" height="64">
  <rect x="6" y="36" width="52" height="22" rx="3" fill="#1A1428"/>
  <rect x="8" y="38" width="48" height="18" rx="2" fill="#58ABB9"/>
  <rect x="10" y="39" width="44" height="16" rx="2" fill="#76E4F7"/>
  <rect x="12" y="40" width="20" height="6" fill="#A5EDF9"/>
  <rect x="14" y="42" width="4" height="8" fill="#64C1D1"/>
  <rect x="26" y="42" width="4" height="8" fill="#64C1D1"/>
  <rect x="38" y="42" width="4" height="8" fill="#64C1D1"/>
  <rect x="50" y="42" width="4" height="8" fill="#64C1D1"/>
  <polygon points="8,36 16,36 12,26" fill="#1A1428"/>
  <polygon points="9,36 15,36 12,28" fill="#58ABB9"/>
  <polygon points="10,36 14,36 12,29" fill="#76E4F7"/>
  <polygon points="18,36 26,36 22,16" fill="#1A1428"/>
  <polygon points="19,36 25,36 22,18" fill="#58ABB9"/>
  <polygon points="20,36 24,36 22,19" fill="#76E4F7"/>
  <polygon points="28,36 36,36 32,28" fill="#1A1428"/>
  <polygon points="29,36 35,36 32,30" fill="#58ABB9"/>
  <polygon points="30,36 34,36 32,31" fill="#76E4F7"/>
  <polygon points="38,36 46,36 42,16" fill="#1A1428"/>
  <polygon points="39,36 45,36 42,18" fill="#58ABB9"/>
  <polygon points="40,36 44,36 42,19" fill="#76E4F7"/>
  <polygon points="48,36 56,36 52,26" fill="#1A1428"/>
  <polygon points="49,36 55,36 52,28" fill="#58ABB9"/>
  <polygon points="50,36 54,36 52,29" fill="#76E4F7"/>
  <circle cx="12" cy="24" r="4" fill="#1A1428"/>
  <circle cx="12" cy="24" r="3" fill="#805AD5"/>
  <circle cx="11" cy="23" r="1" fill="#BFACEA"/>
  <circle cx="22" cy="14" r="4" fill="#1A1428"/>
  <circle cx="22" cy="14" r="3" fill="#F6C027"/>
  <circle cx="21" cy="13" r="1" fill="#FADF93"/>
  <circle cx="32" cy="26" r="4" fill="#1A1428"/>
  <circle cx="32" cy="26" r="3" fill="#805AD5"/>
  <circle cx="31" cy="25" r="1" fill="#BFACEA"/>
  <circle cx="42" cy="14" r="4" fill="#1A1428"/>
  <circle cx="42" cy="14" r="3" fill="#F6C027"/>
  <circle cx="41" cy="13" r="1" fill="#FADF93"/>
  <circle cx="52" cy="24" r="4" fill="#1A1428"/>
  <circle cx="52" cy="24" r="3" fill="#805AD5"/>
  <circle cx="51" cy="23" r="1" fill="#BFACEA"/>
  <circle cx="32" cy="47" r="6" fill="#1A1428"/>
  <circle cx="32" cy="47" r="5" fill="#805AD5"/>
  <circle cx="31" cy="45" r="2" fill="#BFACEA"/>
</svg>