<svg xmlns="http://www.w3.org/2000/svg" viewBox="0 0 64 64" width="64" height="64">
  <rect x="4" y="20" width="44" height="20" rx="4" fill="#1A1428"/>
  <rect x="6" y="22" width="40" height="16" rx="3" fill="#3FA79D"/>
  <rect x="8" y="23" width="36" height="14" rx="3" fill="#4FD1C5"/>
  <rect x="10" y="24" width="16" height="8" rx="2" fill="#95E3DC"/>
  <rect x="8" y="32" width="36" height="2" fill="#43B1A7"/>
  <circle cx="14" cy="30" r="2" fill="#3B9C93"/>
  <circle cx="22" cy="30" r="2" fill="#3B9C93"/>
  <circle cx="30" cy="30" r="2" fill="#3B9C93"/>
  <circle cx="52" cy="30" r="10" fill="#1A1428"/>
  <circle cx="52" cy="30" r="8" fill="#358D85"/>
  <circle cx="52" cy="30" r="7" fill="#3FA79D"/>
  <circle cx="50" cy="28" r="2" fill="#8BCAC4"/>
  <polygon points="48,36 56,36 60,56 52,54" fill="#1A1428"/>
  <polygon points="49,37 55,37 58,54 52,52" fill="#3FA79D"/>
  <polygon points="50,38 54,38 56,52 52,51" fill="#4FD1C5"/>
  <polygon points="48,36 52,36 50,56 44,58" fill="#1A1428"/>
  <polygon points="49,37 51,37 49,54 45,56" fill="#3FA79D"/>
  <polygon points="49,38 51,38 49,52 46,54" fill="#4FD1C5"/>
</svg>