<svg xmlns="http://www.w3.org/2000/svg" viewBox="0 0 64 64" width="64" height="64">
  <rect x="4" y="20" width="44" height="20" rx="4" fill="#1A1428"/>
  <rect x="6" y="22" width="40" height="16" rx="3" fill="#BD6D2B"/>
  <rect x="8" y="23" width="36" height="14" rx="3" fill="#ED8936"/>
  <rect x="10" y="24" width="16" height="8" rx="2" fill="#F4B886"/>
  <rect x="8" y="32" width="36" height="2" fill="#C9742D"/>
  <circle cx="14" cy="30" r="2" fill="#B16628"/>
  <circle cx="22" cy="30" r="2" fill="#B16628"/>
  <circle cx="30" cy="30" r="2" fill="#B16628"/>
  <circle cx="52" cy="30" r="10" fill="#1A1428"/>
  <circle cx="52" cy="30" r="8" fill="#A05C24"/>
  <circle cx="52" cy="30" r="7" fill="#BD6D2B"/>
  <circle cx="50" cy="28" r="2" fill="#D7A77F"/>
  <polygon points="48,36 56,36 60,56 52,54" fill="#1A1428"/>
  <polygon points="49,37 55,37 58,54 52,52" fill="#BD6D2B"/>
  <polygon points="50,38 54,38 56,52 52,51" fill="#ED8936"/>
  <polygon points="48,36 52,36 50,56 44,58" fill="#1A1428"/>
  <polygon points="49,37 51,37 49,54 45,56" fill="#BD6D2B"/>
  <polygon points="49,38 51,38 49,52 46,54" fill="#ED8936"/>
</svg>