<svg xmlns="http://www.w3.org/2000/svg" viewBox="0 0 64 64" width="64" height="64">
  <rect x="10" y="4" width="44" height="38" rx="12" fill="#1A1428"/>
  <rect x="12" y="6" width="40" height="34" rx="10" fill="#373F4E"/>
  <rect x="14" y="8" width="36" height="30" rx="8" fill="#4A5568"/>
  <rect x="16" y="10" width="16" height="20" fill="#808895"/>
  <rect x="8" y="34" width="12" height="20" rx="3" fill="#1A1428"/>
  <rect x="9" y="35" width="10" height="18" rx="2" fill="#373F4E"/>
  <rect x="10" y="36" width="8" height="16" rx="2" fill="#4A5568"/>
  <rect x="44" y="34" width="12" height="20" rx="3" fill="#1A1428"/>
  <rect x="45" y="35" width="10" height="18" rx="2" fill="#373F4E"/>
  <rect x="46" y="36" width="8" height="16" rx="2" fill="#4A5568"/>
  <rect x="16" y="32" width="32" height="8" rx="2" fill="#1A1428"/>
  <rect x="18" y="33" width="28" height="6" rx="2" fill="#2D3748"/>
  <rect x="20" y="34" width="8" height="3" fill="#4C5563"/>
  <rect x="26" y="4" width="12" height="6" fill="#805AD5"/>
  <rect x="28" y="5" width="8" height="4" fill="#A68BE1"/>
  <rect x="14" y="36" width="36" height="4" fill="#805AD5"/>
  <circle cx="32" cy="20" r="5" fill="#1A1428"/>
  <circle cx="32" cy="20" r="4" fill="#F6C027"/>
  <circle cx="31" cy="18" r="1.5" fill="#FADF93"/>
</svg>