<svg xmlns="http://www.w3.org/2000/svg" viewBox="0 0 64 64" width="64" height="64">
  <rect x="10" y="4" width="44" height="38" rx="12" fill="#1A1428"/>
  <rect x="12" y="6" width="40" height="34" rx="10" fill="#68462D"/>
  <rect x="14" y="8" width="36" height="30" rx="8" fill="#8B5E3C"/>
  <rect x="16" y="10" width="16" height="20" fill="#AD8E76"/>
  <rect x="8" y="34" width="12" height="20" rx="3" fill="#1A1428"/>
  <rect x="9" y="35" width="10" height="18" rx="2" fill="#68462D"/>
  <rect x="10" y="36" width="8" height="16" rx="2" fill="#8B5E3C"/>
  <rect x="44" y="34" width="12" height="20" rx="3" fill="#1A1428"/>
  <rect x="45" y="35" width="10" height="18" rx="2" fill="#68462D"/>
  <rect x="46" y="36" width="8" height="16" rx="2" fill="#8B5E3C"/>
  <rect x="16" y="32" width="32" height="8" rx="2" fill="#1A1428"/>
  <rect x="18" y="33" width="28" height="6" rx="2" fill="#C8A870"/>
  <rect x="20" y="34" width="8" height="3" fill="#D0B585"/>
  <rect x="26" y="4" width="12" height="6" fill="#C8962A"/>
  <rect x="28" y="5" width="8" height="4" fill="#D8B569"/>
  <rect x="14" y="36" width="36" height="4" fill="#C8962A"/>
</svg>