<svg xmlns="http://www.w3.org/2000/svg" viewBox="0 0 64 64" width="64" height="64">
  <circle cx="32" cy="32" r="28" fill="#FC818120"/>
  <circle cx="32" cy="32" r="22" fill="#FC818135"/>
  <circle cx="32" cy="32" r="16" fill="#FC818155"/>
  <circle cx="32" cy="32" r="28" fill="#1A142840"/>
  <circle cx="54.0" cy="32.0" r="5" fill="#1A1428"/>
  <circle cx="54.0" cy="32.0" r="4" fill="#FC8181"/>
  <circle cx="54.0" cy="32.0" r="2" fill="#FDB3B3"/>
  <circle cx="43.0" cy="51.052558883257646" r="5" fill="#1A1428"/>
  <circle cx="43.0" cy="51.052558883257646" r="4" fill="#FC8181"/>
  <circle cx="43.0" cy="51.052558883257646" r="2" fill="#FDB3B3"/>
  <circle cx="21.000000000000007" cy="51.05255888325765" r="5" fill="#1A1428"/>
  <circle cx="21.000000000000007" cy="51.05255888325765" r="4" fill="#FC8181"/>
  <circle cx="21.000000000000007" cy="51.05255888325765" r="2" fill="#FDB3B3"/>
  <circle cx="10.0" cy="32.0" r="5" fill="#1A1428"/>
  <circle cx="10.0" cy="32.0" r="4" fill="#FC8181"/>
  <circle cx="10.0" cy="32.0" r="2" fill="#FDB3B3"/>
  <circle cx="20.99999999999999" cy="12.947441116742354" r="5" fill="#1A1428"/>
  <circle cx="20.99999999999999" cy="12.947441116742354" r="4" fill="#FC8181"/>
  <circle cx="20.99999999999999" cy="12.947441116742354" r="2" fill="#FDB3B3"/>
  <circle cx="43.0" cy="12.94744111674235" r="5" fill="#1A1428"/>
  <circle cx="43.0" cy="12.94744111674235" r="4" fill="#FC8181"/>
  <circle cx="43.0" cy="12.94744111674235" r="2" fill="#FDB3B3"/>
  <polygon points="44.0,32.0 36.94974746830583,36.94974746830583 32.0,44.0 27.05025253169417,36.94974746830583 20.0,32.0 27.050252531694166,27.05025253169417 31.999999999999996,20.0 36.94974746830583,27.050252531694166" fill="#1A1428"/>
  <polygon points="42.0,32.0 35.53553390593274,35.53553390593274 32.0,42.0 28.464466094067262,35.53553390593274 22.0,32.0 28.464466094067262,28.464466094067262 31.999999999999996,22.0 35.53553390593274,28.464466094067262" fill="#FC8181"/>
  <circle cx="32" cy="32" r="7" fill="#1A1428"/>
  <circle cx="32" cy="32" r="6" fill="#F6C027"/>
  <circle cx="32" cy="32" r="3" fill="#F9D97D"/>
  <circle cx="30" cy="30" r="1.5" fill="#FFFFFF"/>
  <circle cx="12" cy="14" r="2" fill="#FC8181AA"/>
  <circle cx="12" cy="14" r="1" fill="#FDB3B3"/>
  <circle cx="52" cy="12" r="2" fill="#FC8181AA"/>
  <circle cx="52" cy="12" r="1" fill="#FDB3B3"/>
  <circle cx="14" cy="50" r="2" fill="#FC8181AA"/>
  <circle cx="14" cy="50" r="1" fill="#FDB3B3"/>
  <circle cx="50" cy="52" r="2" fill="#FC8181AA"/>
  <circle cx="50" cy="52" r="1" fill="#FDB3B3"/>
</svg>