<svg xmlns="http://www.w3.org/2000/svg" viewBox="0 0 64 64" width="64" height="64">
  <rect x="22" y="4" width="20" height="8" rx="6" fill="#1A1428"/>
  <rect x="24" y="5" width="16" height="6" rx="5" fill="#C08E29"/>
  <rect x="4" y="10" width="18" height="14" rx="4" fill="#1A1428"/>
  <rect x="6" y="12" width="14" height="10" rx="3" fill="#A67B23"/>
  <rect x="7" y="13" width="10" height="8" rx="2" fill="#D69E2E"/>
  <rect x="42" y="10" width="18" height="14" rx="4" fill="#1A1428"/>
  <rect x="44" y="12" width="14" height="10" rx="3" fill="#A67B23"/>
  <rect x="47" y="13" width="10" height="8" rx="2" fill="#D69E2E"/>
  <rect x="10" y="18" width="44" height="40" rx="5" fill="#1A1428"/>
  <rect x="12" y="20" width="40" height="36" rx="4" fill="#A67B23"/>
  <rect x="14" y="21" width="36" height="34" rx="3" fill="#D69E2E"/>
  <rect x="16" y="22" width="14" height="28" fill="#E3BD70"/>
  <rect x="10" y="18" width="44" height="6" fill="#744210"/>
  <rect x="12" y="19" width="40" height="4" fill="#A48463"/>
  <rect x="10" y="50" width="44" height="8" fill="#744210"/>
  <rect x="12" y="51" width="40" height="4" fill="#A48463"/>
  <rect x="31" y="26" width="2" height="24" fill="#B58627"/>
  <circle cx="32" cy="28" r="2" fill="#744210"/>
  <circle cx="32" cy="28" r="1" fill="#A48463"/>
  <circle cx="32" cy="34" r="2" fill="#744210"/>
  <circle cx="32" cy="34" r="1" fill="#A48463"/>
  <circle cx="32" cy="40" r="2" fill="#744210"/>
  <circle cx="32" cy="40" r="1" fill="#A48463"/>
  <circle cx="32" cy="23" r="5" fill="#1A1428"/>
  <circle cx="32" cy="23" r="4" fill="#FC8181"/>
  <circle cx="31" cy="22" r="1.5" fill="#FDC0C0"/>
</svg>