<svg xmlns="http://www.w3.org/2000/svg" viewBox="0 0 64 64" width="64" height="64">
  <rect x="8" y="4" width="48" height="12" rx="4" fill="#1A1428"/>
  <rect x="10" y="5" width="44" height="10" rx="3" fill="#274975"/>
  <rect x="12" y="6" width="40" height="6" rx="2" fill="#2C5282"/>
  <rect x="28" y="5" width="8" height="8" rx="2" fill="#1A1428"/>
  <rect x="29" y="6" width="6" height="6" rx="1" fill="#8097B4"/>
  <rect x="8" y="14" width="48" height="10" fill="#1A1428"/>
  <rect x="10" y="15" width="44" height="8" fill="#142A48"/>
  <rect x="12" y="16" width="40" height="6" fill="#1A365D"/>
  <rect x="6" y="22" width="24" height="38" rx="4" fill="#1A1428"/>
  <rect x="8" y="24" width="20" height="34" rx="3" fill="#142A48"/>
  <rect x="10" y="25" width="16" height="32" rx="2" fill="#1A365D"/>
  <rect x="11" y="26" width="6" height="28" fill="#5E728D"/>
  <rect x="34" y="22" width="24" height="38" rx="4" fill="#1A1428"/>
  <rect x="36" y="24" width="20" height="34" rx="3" fill="#142A48"/>
  <rect x="38" y="25" width="16" height="32" rx="2" fill="#1A365D"/>
  <rect x="47" y="26" width="6" height="28" fill="#5E728D"/>
  <rect x="10" y="46" width="16" height="2" fill="#162F51"/>
  <rect x="38" y="46" width="16" height="2" fill="#162F51"/>
  <rect x="8" y="56" width="22" height="6" fill="#2C5282"/>
  <rect x="34" y="56" width="22" height="6" fill="#2C5282"/>
</svg>