<svg xmlns="http://www.w3.org/2000/svg" viewBox="0 0 64 64" width="64" height="64">
  <rect x="4" y="20" width="26" height="26" rx="6" fill="#1A1428"/>
  <rect x="6" y="22" width="22" height="22" rx="5" fill="#8E5E18"/>
  <rect x="7" y="23" width="20" height="20" rx="4" fill="#B7791F"/>
  <rect x="8" y="24" width="9" height="14" fill="#D0A76D"/>
  <rect x="12" y="16" width="12" height="10" rx="3" fill="#1A1428"/>
  <rect x="13" y="17" width="10" height="8" rx="2" fill="#BE8635"/>
  <rect x="4" y="36" width="14" height="10" rx="5" fill="#1A1428"/>
  <rect x="5" y="37" width="12" height="8" rx="4" fill="#9B661A"/>
  <rect x="2" y="44" width="32" height="10" rx="4" fill="#1A1428"/>
  <rect x="4" y="46" width="28" height="7" rx="3" fill="#744210"/>
  <rect x="5" y="46" width="12" height="3" fill="#9D7A57"/>
  <rect x="10" y="26" width="12" height="6" rx="2" fill="#1A1428"/>
  <rect x="11" y="27" width="10" height="4" rx="1" fill="#F6C027"/>
  <circle cx="16" cy="29" r="2" fill="#F9D97D"/>
  <rect x="4" y="36" width="26" height="2" fill="#926018"/>
  <rect x="36" y="20" width="26" height="26" rx="6" fill="#1A1428"/>
  <rect x="38" y="22" width="22" height="22" rx="5" fill="#8E5E18"/>
  <rect x="39" y="23" width="20" height="20" rx="4" fill="#B7791F"/>
  <rect x="47" y="24" width="9" height="14" fill="#D0A76D"/>
  <rect x="40" y="16" width="12" height="10" rx="3" fill="#1A1428"/>
  <rect x="41" y="17" width="10" height="8" rx="2" fill="#BE8635"/>
  <rect x="48" y="36" width="14" height="10" rx="5" fill="#1A1428"/>
  <rect x="49" y="37" width="12" height="8" rx="4" fill="#9B661A"/>
  <rect x="34" y="44" width="32" height="10" rx="4" fill="#1A1428"/>
  <rect x="36" y="46" width="28" height="7" rx="3" fill="#744210"/>
  <rect x="50" y="46" width="12" height="3" fill="#9D7A57"/>
  <rect x="44" y="26" width="12" height="6" rx="2" fill="#1A1428"/>
  <rect x="45" y="27" width="10" height="4" rx="1" fill="#F6C027"/>
  <circle cx="50" cy="29" r="2" fill="#F9D97D"/>
  <rect x="36" y="36" width="26" height="2" fill="#926018"/>
</svg>