<svg xmlns="http://www.w3.org/2000/svg" viewBox="0 0 64 64" width="64" height="64">
  <rect x="4" y="20" width="26" height="26" rx="6" fill="#1A1428"/>
  <rect x="6" y="22" width="22" height="22" rx="5" fill="#3DA399"/>
  <rect x="7" y="23" width="20" height="20" rx="4" fill="#4FD1C5"/>
  <rect x="8" y="24" width="9" height="14" fill="#8CE1D9"/>
  <rect x="12" y="16" width="12" height="10" rx="3" fill="#1A1428"/>
  <rect x="13" y="17" width="10" height="8" rx="2" fill="#60D5CA"/>
  <rect x="4" y="36" width="14" height="10" rx="5" fill="#1A1428"/>
  <rect x="5" y="37" width="12" height="8" rx="4" fill="#43B1A7"/>
  <rect x="2" y="44" width="32" height="10" rx="4" fill="#1A1428"/>
  <rect x="4" y="46" width="28" height="7" rx="3" fill="#2C7A7B"/>
  <rect x="5" y="46" width="12" height="3" fill="#6BA1A2"/>
  <rect x="10" y="26" width="12" height="6" rx="2" fill="#1A1428"/>
  <rect x="11" y="27" width="10" height="4" rx="1" fill="#76E4F7"/>
  <circle cx="16" cy="29" r="2" fill="#ACEEFA"/>
  <rect x="4" y="36" width="26" height="2" fill="#3FA79D"/>
  <rect x="36" y="20" width="26" height="26" rx="6" fill="#1A1428"/>
  <rect x="38" y="22" width="22" height="22" rx="5" fill="#3DA399"/>
  <rect x="39" y="23" width="20" height="20" rx="4" fill="#4FD1C5"/>
  <rect x="47" y="24" width="9" height="14" fill="#8CE1D9"/>
  <rect x="40" y="16" width="12" height="10" rx="3" fill="#1A1428"/>
  <rect x="41" y="17" width="10" height="8" rx="2" fill="#60D5CA"/>
  <rect x="48" y="36" width="14" height="10" rx="5" fill="#1A1428"/>
  <rect x="49" y="37" width="12" height="8" rx="4" fill="#43B1A7"/>
  <rect x="34" y="44" width="32" height="10" rx="4" fill="#1A1428"/>
  <rect x="36" y="46" width="28" height="7" rx="3" fill="#2C7A7B"/>
  <rect x="50" y="46" width="12" height="3" fill="#6BA1A2"/>
  <rect x="44" y="26" width="12" height="6" rx="2" fill="#1A1428"/>
  <rect x="45" y="27" width="10" height="4" rx="1" fill="#76E4F7"/>
  <circle cx="50" cy="29" r="2" fill="#ACEEFA"/>
  <rect x="36" y="36" width="26" height="2" fill="#3FA79D"/>
</svg>