<svg xmlns="http://www.w3.org/2000/svg" viewBox="0 0 64 64" width="64" height="64">
  <rect x="25" y="1" width="14" height="31" fill="#1A1428"/>
  <rect x="27" y="3" width="10" height="27" fill="#846048"/>
  <rect x="28" y="3" width="8" height="25" fill="#B08060"/>
  <rect x="29" y="3" width="4" height="23" fill="#D4A880"/>
  <polygon points="27,3 37,3 32,-3" fill="#B08060"/>
  <polygon points="29,3 35,3 32,0" fill="#D4A880"/>
  <rect x="9" y="28" width="46" height="12" fill="#1A1428"/>
  <rect x="11" y="30" width="42" height="8" fill="#845A18"/>
  <rect x="13" y="31" width="38" height="6" fill="#B07820"/>
  <rect x="15" y="32" width="20" height="4" fill="#D4A030"/>
  <rect x="27" y="28" width="10" height="12" fill="#846048"/>
  <rect x="28" y="28" width="8" height="12" fill="#B08060"/>
  <rect x="29" y="28" width="4" height="12" fill="#D4A880"/>
  <rect x="25" y="40" width="14" height="22" fill="#1A1428"/>
  <rect x="27" y="42" width="10" height="18" fill="#552619"/>
  <rect x="28" y="42" width="8" height="18" fill="#6B3020"/>
  <rect x="29" y="42" width="3" height="16" fill="#88594C"/>
  <rect x="28" y="45" width="8" height="2" fill="#401C13"/>
  <rect x="28" y="50" width="8" height="2" fill="#401C13"/>
  <rect x="28" y="55" width="8" height="2" fill="#401C13"/>
  <rect x="23" y="60" width="18" height="6" fill="#1A1428"/>
  <rect x="25" y="61" width="14" height="4" fill="#4A2116"/>
  <rect x="27" y="61" width="6" height="2" fill="#80635B"/>
</svg>