<svg xmlns="http://www.w3.org/2000/svg" viewBox="0 0 64 64" width="64" height="64">
  <rect x="25" y="1" width="14" height="31" fill="#1A1428"/>
  <rect x="27" y="3" width="10" height="27" fill="#B8901D"/>
  <rect x="28" y="3" width="8" height="25" fill="#F6C027"/>
  <rect x="29" y="3" width="4" height="23" fill="#FFEAA0"/>
  <polygon points="27,3 37,3 32,-3" fill="#F6C027"/>
  <polygon points="29,3 35,3 32,0" fill="#FFEAA0"/>
  <rect x="9" y="28" width="46" height="12" fill="#1A1428"/>
  <rect x="11" y="30" width="42" height="8" fill="#B8901D"/>
  <rect x="13" y="31" width="38" height="6" fill="#F6C027"/>
  <rect x="15" y="32" width="20" height="4" fill="#FFFFFF"/>
  <rect x="27" y="28" width="10" height="12" fill="#B8901D"/>
  <rect x="28" y="28" width="8" height="12" fill="#F6C027"/>
  <rect x="29" y="28" width="4" height="12" fill="#FFEAA0"/>
  <circle cx="13" cy="34" r="3" fill="#FC8181"/>
  <circle cx="51" cy="34" r="3" fill="#FC8181"/>
  <rect x="25" y="40" width="14" height="22" fill="#1A1428"/>
  <rect x="27" y="42" width="10" height="18" fill="#6648AA"/>
  <rect x="28" y="42" width="8" height="18" fill="#805AD5"/>
  <rect x="29" y="42" width="3" height="16" fill="#997BDD"/>
  <rect x="28" y="45" width="8" height="2" fill="#4C367F"/>
  <rect x="28" y="50" width="8" height="2" fill="#4C367F"/>
  <rect x="28" y="55" width="8" height="2" fill="#4C367F"/>
  <rect x="23" y="60" width="18" height="6" fill="#1A1428"/>
  <rect x="25" y="61" width="14" height="4" fill="#553C9A"/>
  <rect x="27" y="61" width="6" height="2" fill="#8876B8"/>
</svg>